<svg width="82" height="82" viewBox="0 0 82 82" fill="none" xmlns="http://www.w3.org/2000/svg">
<path d="M29.8377 5.39724V1.32927C29.8697 -0.368384 32.4002 -0.368384 32.4162 1.32927V5.39724C32.4002 7.0949 29.8697 7.0949 29.8377 5.39724ZM5.47793 29.757H1.40996C-0.287695 29.789 -0.287695 32.3195 1.40996 32.3355H5.47793C6.19863 32.3355 6.77519 31.759 6.77519 31.0383C6.77519 30.3336 6.19863 29.757 5.47793 29.757ZM50.1775 13.8215L53.0443 10.9547C54.2295 9.73748 52.4357 7.94373 51.2185 9.12888L48.3518 11.9957C47.1666 13.2129 48.9603 15.0066 50.1775 13.8215ZM12.0764 13.8215C13.2936 15.0066 15.0873 13.2129 13.9021 11.9957L11.0354 9.12888C9.81816 7.94373 8.02441 9.73748 9.20957 10.9547L12.0764 13.8215ZM81.7924 11.0347L70.4373 47.7906C70.2451 48.4312 69.5885 48.7996 68.9478 48.6715L61.0201 47.1019L52.2596 55.414C51.2666 59.0176 51.9713 61.7402 54.4537 63.8062C55.4467 64.7511 56.5678 65.8242 56.4877 67.5699C56.4236 69.0433 55.6228 69.9562 55.0303 70.6129C53.2045 72.2785 55.2064 73.4476 56.8881 74.5847C58.2334 75.4656 59.6268 76.3785 59.3225 77.8679C58.9861 79.5976 57.1123 79.6617 54.2615 79.7738C51.8271 79.8699 48.4959 79.982 44.3478 80.9109C41.401 81.5996 38.5342 82.4324 35.4752 81.5676C33.8096 81.1351 31.183 80.1902 30.2061 78.4285H28.2201C25.7057 78.4285 23.6557 76.3785 23.6557 73.864V71.8781H22.5826C18.5307 71.9261 16.4807 66.7851 19.4115 64.0465C17.1373 62.0125 17.7939 57.8164 20.6768 56.6472C20.5807 53.0437 19.0271 49.6324 16.2244 47.0219C2.3709 34.1453 10.9393 10.6504 29.7256 9.43318C39.6232 8.80857 48.64 14.9586 51.7471 24.2156C60.5236 19.6672 71.2221 14.0777 79.9506 9.52927C80.9436 8.96873 82.1607 9.99373 81.7924 11.0347ZM23.2713 56.1988H38.9986C39.1908 52.4351 40.6482 48.9117 43.0826 46.2691C42.7463 45.8207 41.0006 43.5144 40.6963 43.114L22.3584 39.5105C31.151 34.9461 40.6642 29.9812 49.4568 25.4008C42.6662 5.09294 13.4537 8.88865 11.9643 30.2695C11.724 35.875 13.9182 41.2883 18.0021 45.116C21.2053 48.1269 23.0631 52.0508 23.2713 56.1988ZM20.5967 60.7633C20.5967 61.8523 21.4936 62.7492 22.5826 62.7492H39.6553C42.2818 62.7172 42.2498 58.8414 39.6553 58.7933H22.5826C21.5256 58.7613 20.5807 59.7062 20.5967 60.7633ZM39.6553 69.2996C42.2658 69.2355 42.2658 65.4078 39.6553 65.3437H22.5826C19.9721 65.4238 19.9881 69.2355 22.5986 69.2996H39.6553ZM34.0178 75.85C35.1068 75.85 36.0037 74.9531 36.0037 73.864V71.8781H26.2502V73.864C26.2502 74.9531 27.1311 75.85 28.2361 75.85H34.0178ZM49.6971 55.0297L44.6682 48.3832C42.7623 50.6094 41.6572 53.5402 41.5611 56.6472C44.3639 57.8164 45.1486 61.9804 42.8264 64.0625C45.7572 66.8011 43.7072 71.9582 39.6553 71.8941H38.5822V73.8801C38.5822 76.3304 36.6443 78.3164 34.21 78.4285C37.2369 79.966 40.5682 79.2613 43.7873 78.4125C49.2807 77.2273 52.2275 77.3554 56.0072 77.1312C52.8521 75.3054 49.8412 72.3746 53.0924 68.9312C54.2775 67.5859 54.2135 67.1215 52.676 65.6961C49.7131 63.2457 48.5119 59.3058 49.6971 55.0297ZM61.6127 29.9652L61.2924 30.1894L43.2908 42.2652L43.6271 42.7136L46.542 46.5734L50.4018 51.6824L51.9072 44.0269C54.4377 39.8308 58.9221 33.9851 61.6127 29.9652ZM57.9131 46.5093C57.6408 46.4613 54.3256 45.8047 54.1814 45.7726L53.1564 51.0258L57.9131 46.5093ZM78.4131 13.2289C72.8396 16.1277 63.6787 20.9004 57.9932 23.8633C48.8963 28.6039 39.2068 33.6328 30.0939 38.3894L41.1607 40.5676L65.9369 23.9594C66.2893 23.7511 66.7377 23.6871 67.1221 23.8472C67.8908 24.1035 68.2111 25.1125 67.7307 25.7691C63.5986 31.6308 59.4826 37.5086 55.3666 43.3703L55.6068 43.4183L68.3232 45.9168L78.4131 13.2289ZM12.0764 48.2711L9.20957 51.1379C8.39277 51.9066 9.01738 53.3801 10.1225 53.348C10.4588 53.348 10.7791 53.2199 11.0354 52.9636L13.9021 50.0968C14.4146 49.5843 14.4146 48.7676 13.9021 48.2711C13.4057 47.7746 12.5889 47.7746 12.0764 48.2711Z" fill="white"/>
</svg>
