<svg width="42" height="42" viewBox="0 0 42 42" fill="none" xmlns="http://www.w3.org/2000/svg">
<path d="M1.61538 21C1.61538 10.3142 10.3142 1.61538 21 1.61538V0C9.41769 0 0 9.41769 0 21H1.61538ZM42 21H40.3846C40.3846 31.6858 31.6858 40.3846 21 40.3846V42C32.5823 42 42 32.5823 42 21ZM22.6154 0H24.2308V1.61538H22.6154V0ZM17.7692 40.3846H19.3846V42H17.7692V40.3846Z" fill="white"/>
<path d="M37.1553 21C37.1553 12.0912 29.9103 4.84619 21.0015 4.84619C12.0927 4.84619 4.84766 12.0912 4.84766 21C4.84766 29.9089 12.0927 37.1539 21.0015 37.1539C29.9103 37.1539 37.1553 29.9089 37.1553 21ZM6.46304 21C6.46304 12.9797 12.9811 6.46158 21.0015 6.46158C29.0219 6.46158 35.54 12.9797 35.54 21C35.54 29.0204 29.0219 35.5385 21.0015 35.5385C12.9811 35.5385 6.46304 29.0204 6.46304 21Z" fill="white"/>
<path d="M29.1487 28.8347C29.6656 28.3016 30.126 27.712 30.5218 27.0901L29.1568 26.2178C28.8176 26.7508 28.4218 27.2516 27.9776 27.712C26.1441 29.6343 23.6564 30.6924 20.991 30.6924C15.6441 30.6924 11.2987 26.347 11.2987 21.0001C11.2987 19.4251 11.6703 17.9228 12.3972 16.5255C12.6718 15.9924 12.9949 15.4916 13.3583 15.0393L12.0903 14.0378C11.6703 14.5708 11.2906 15.1605 10.9676 15.7824C10.1279 17.3933 9.69007 19.1834 9.69141 21.0001C9.69141 27.2355 14.7637 32.3078 20.9991 32.3078C24.1087 32.3078 27.0083 31.072 29.1487 28.8347ZM17.2595 12.0508C18.4468 11.5582 19.7068 11.3078 20.9991 11.3078C26.346 11.3078 30.6914 15.6532 30.6914 21.0001C30.6914 21.7593 30.6026 22.5105 30.4329 23.2374C30.3199 23.7382 30.1583 24.2389 29.9483 24.7235L31.4345 25.3535C31.6768 24.7882 31.8626 24.1985 31.9999 23.6089C32.2018 22.7608 32.3068 21.8885 32.3068 21.0001C32.3068 14.7647 27.2345 9.69238 20.9991 9.69238C19.4968 9.69238 18.0268 9.98315 16.6456 10.5647C15.6279 10.9928 14.6668 11.5743 13.7864 12.3012L14.8203 13.5451C15.5795 12.9151 16.4033 12.4143 17.2756 12.0508H17.2595Z" fill="white"/>
<path d="M16.7287 21.2342L15.5898 22.373L18.8206 25.6038C18.9741 25.7573 19.176 25.838 19.3941 25.838H19.4425C19.6687 25.8219 19.8868 25.7169 20.0322 25.5392L26.4937 17.4623L25.2337 16.4526L19.3375 23.8269L16.7448 21.2342H16.7287Z" fill="white"/>
</svg>
