<svg width="40" height="40" viewBox="0 0 40 40" fill="none" xmlns="http://www.w3.org/2000/svg">
<path d="M36 2.66667H34.6667V0.666667C34.6667 0.489856 34.5964 0.320286 34.4714 0.195262C34.3464 0.0702379 34.1768 0 34 0C33.8232 0 33.6536 0.0702379 33.5286 0.195262C33.4036 0.320286 33.3333 0.489856 33.3333 0.666667V2.66667H30.6667V0.666667C30.6667 0.489856 30.5964 0.320286 30.4714 0.195262C30.3464 0.0702379 30.1768 0 30 0C29.8232 0 29.6536 0.0702379 29.5286 0.195262C29.4036 0.320286 29.3333 0.489856 29.3333 0.666667V2.66667H26.6667V0.666667C26.6667 0.489856 26.5964 0.320286 26.4714 0.195262C26.3464 0.0702379 26.1768 0 26 0C25.8232 0 25.6536 0.0702379 25.5286 0.195262C25.4036 0.320286 25.3333 0.489856 25.3333 0.666667V2.66667H22.6667V0.666667C22.6667 0.489856 22.5964 0.320286 22.4714 0.195262C22.3464 0.0702379 22.1768 0 22 0C21.8232 0 21.6536 0.0702379 21.5286 0.195262C21.4036 0.320286 21.3333 0.489856 21.3333 0.666667V2.66667H18.6667V0.666667C18.6667 0.489856 18.5964 0.320286 18.4714 0.195262C18.3464 0.0702379 18.1768 0 18 0C17.8232 0 17.6536 0.0702379 17.5286 0.195262C17.4036 0.320286 17.3333 0.489856 17.3333 0.666667V2.66667H14.6667V0.666667C14.6667 0.489856 14.5964 0.320286 14.4714 0.195262C14.3464 0.0702379 14.1768 0 14 0C13.8232 0 13.6536 0.0702379 13.5286 0.195262C13.4036 0.320286 13.3333 0.489856 13.3333 0.666667V2.66667H10.6667V0.666667C10.6667 0.489856 10.5964 0.320286 10.4714 0.195262C10.3464 0.0702379 10.1768 0 10 0C9.82319 0 9.65362 0.0702379 9.5286 0.195262C9.40357 0.320286 9.33333 0.489856 9.33333 0.666667V2.66667H6.66667V0.666667C6.66667 0.489856 6.59643 0.320286 6.4714 0.195262C6.34638 0.0702379 6.17681 0 6 0C5.82319 0 5.65362 0.0702379 5.5286 0.195262C5.40357 0.320286 5.33333 0.489856 5.33333 0.666667V2.66667H4C2.93946 2.66773 1.92266 3.08949 1.17274 3.83941C0.422826 4.58933 0.00105895 5.60613 0 6.66667V36C0.00105895 37.0605 0.422826 38.0773 1.17274 38.8273C1.92266 39.5772 2.93946 39.9989 4 40H36C37.0605 39.9989 38.0773 39.5772 38.8273 38.8273C39.5772 38.0773 39.9989 37.0605 40 36V6.66667C39.9989 5.60613 39.5772 4.58933 38.8273 3.83941C38.0773 3.08949 37.0605 2.66773 36 2.66667ZM38.6667 36C38.6667 36.7072 38.3857 37.3855 37.8856 37.8856C37.3855 38.3857 36.7072 38.6667 36 38.6667H4C3.29276 38.6667 2.61448 38.3857 2.11438 37.8856C1.61428 37.3855 1.33333 36.7072 1.33333 36V6.66667C1.33333 5.95942 1.61428 5.28115 2.11438 4.78105C2.61448 4.28095 3.29276 4 4 4H5.33333V4.66667C5.33333 4.84348 5.40357 5.01305 5.5286 5.13807C5.65362 5.2631 5.82319 5.33333 6 5.33333C6.17681 5.33333 6.34638 5.2631 6.4714 5.13807C6.59643 5.01305 6.66667 4.84348 6.66667 4.66667V4H9.33333V4.66667C9.33333 4.84348 9.40357 5.01305 9.5286 5.13807C9.65362 5.2631 9.82319 5.33333 10 5.33333C10.1768 5.33333 10.3464 5.2631 10.4714 5.13807C10.5964 5.01305 10.6667 4.84348 10.6667 4.66667V4H13.3333V4.66667C13.3333 4.84348 13.4036 5.01305 13.5286 5.13807C13.6536 5.2631 13.8232 5.33333 14 5.33333C14.1768 5.33333 14.3464 5.2631 14.4714 5.13807C14.5964 5.01305 14.6667 4.84348 14.6667 4.66667V4H17.3333V4.66667C17.3333 4.84348 17.4036 5.01305 17.5286 5.13807C17.6536 5.2631 17.8232 5.33333 18 5.33333C18.1768 5.33333 18.3464 5.2631 18.4714 5.13807C18.5964 5.01305 18.6667 4.84348 18.6667 4.66667V4H21.3333V4.66667C21.3333 4.84348 21.4036 5.01305 21.5286 5.13807C21.6536 5.2631 21.8232 5.33333 22 5.33333C22.1768 5.33333 22.3464 5.2631 22.4714 5.13807C22.5964 5.01305 22.6667 4.84348 22.6667 4.66667V4H25.3333V4.66667C25.3333 4.84348 25.4036 5.01305 25.5286 5.13807C25.6536 5.2631 25.8232 5.33333 26 5.33333C26.1768 5.33333 26.3464 5.2631 26.4714 5.13807C26.5964 5.01305 26.6667 4.84348 26.6667 4.66667V4H29.3333V4.66667C29.3333 4.84348 29.4036 5.01305 29.5286 5.13807C29.6536 5.2631 29.8232 5.33333 30 5.33333C30.1768 5.33333 30.3464 5.2631 30.4714 5.13807C30.5964 5.01305 30.6667 4.84348 30.6667 4.66667V4H33.3333V4.66667C33.3333 4.84348 33.4036 5.01305 33.5286 5.13807C33.6536 5.2631 33.8232 5.33333 34 5.33333C34.1768 5.33333 34.3464 5.2631 34.4714 5.13807C34.5964 5.01305 34.6667 4.84348 34.6667 4.66667V4H36C36.7072 4 37.3855 4.28095 37.8856 4.78105C38.3857 5.28115 38.6667 5.95942 38.6667 6.66667V36Z" fill="white"/>
<path d="M35.3346 6.66675H4.66797C4.13754 6.66675 3.62883 6.87746 3.25376 7.25253C2.87868 7.62761 2.66797 8.13632 2.66797 8.66675V35.3334C2.66797 35.8638 2.87868 36.3726 3.25376 36.7476C3.62883 37.1227 4.13754 37.3334 4.66797 37.3334H35.3346C35.8651 37.3334 36.3738 37.1227 36.7488 36.7476C37.1239 36.3726 37.3346 35.8638 37.3346 35.3334V8.66675C37.3346 8.13632 37.1239 7.62761 36.7488 7.25253C36.3738 6.87746 35.8651 6.66675 35.3346 6.66675ZM36.0013 35.3334C36.0013 35.5102 35.9311 35.6798 35.806 35.8048C35.681 35.9298 35.5114 36.0001 35.3346 36.0001H4.66797C4.49116 36.0001 4.32159 35.9298 4.19656 35.8048C4.07154 35.6798 4.0013 35.5102 4.0013 35.3334V8.66675C4.0013 8.48994 4.07154 8.32037 4.19656 8.19534C4.32159 8.07032 4.49116 8.00008 4.66797 8.00008H35.3346C35.5114 8.00008 35.681 8.07032 35.806 8.19534C35.9311 8.32037 36.0013 8.48994 36.0013 8.66675V35.3334Z" fill="white"/>
<path d="M15.9987 9.3335C15.2915 9.3335 14.6132 9.61445 14.1131 10.1145C13.613 10.6146 13.332 11.2929 13.332 12.0002C13.332 12.7074 13.613 13.3857 14.1131 13.8858C14.6132 14.3859 15.2915 14.6668 15.9987 14.6668C16.7059 14.6668 17.3842 14.3859 17.8843 13.8858C18.3844 13.3857 18.6654 12.7074 18.6654 12.0002C18.6654 11.2929 18.3844 10.6146 17.8843 10.1145C17.3842 9.61445 16.7059 9.3335 15.9987 9.3335ZM15.9987 13.3335C15.6451 13.3335 15.3059 13.193 15.0559 12.943C14.8058 12.6929 14.6654 12.3538 14.6654 12.0002C14.6654 11.6465 14.8058 11.3074 15.0559 11.0574C15.3059 10.8073 15.6451 10.6668 15.9987 10.6668C16.3523 10.6668 16.6915 10.8073 16.9415 11.0574C17.1916 11.3074 17.332 11.6465 17.332 12.0002C17.332 12.3538 17.1916 12.6929 16.9415 12.943C16.6915 13.193 16.3523 13.3335 15.9987 13.3335ZM23.9987 9.3335C23.2915 9.3335 22.6132 9.61445 22.1131 10.1145C21.613 10.6146 21.332 11.2929 21.332 12.0002C21.332 12.7074 21.613 13.3857 22.1131 13.8858C22.6132 14.3859 23.2915 14.6668 23.9987 14.6668C24.7059 14.6668 25.3842 14.3859 25.8843 13.8858C26.3844 13.3857 26.6654 12.7074 26.6654 12.0002C26.6654 11.2929 26.3844 10.6146 25.8843 10.1145C25.3842 9.61445 24.7059 9.3335 23.9987 9.3335ZM23.9987 13.3335C23.6451 13.3335 23.3059 13.193 23.0559 12.943C22.8058 12.6929 22.6654 12.3538 22.6654 12.0002C22.6654 11.6465 22.8058 11.3074 23.0559 11.0574C23.3059 10.8073 23.6451 10.6668 23.9987 10.6668C24.3523 10.6668 24.6915 10.8073 24.9415 11.0574C25.1916 11.3074 25.332 11.6465 25.332 12.0002C25.332 12.3538 25.1916 12.6929 24.9415 12.943C24.6915 13.193 24.3523 13.3335 23.9987 13.3335ZM31.9987 9.3335C31.2915 9.3335 30.6132 9.61445 30.1131 10.1145C29.613 10.6146 29.332 11.2929 29.332 12.0002C29.332 12.7074 29.613 13.3857 30.1131 13.8858C30.6132 14.3859 31.2915 14.6668 31.9987 14.6668C32.7059 14.6668 33.3842 14.3859 33.8843 13.8858C34.3844 13.3857 34.6654 12.7074 34.6654 12.0002C34.6654 11.2929 34.3844 10.6146 33.8843 10.1145C33.3842 9.61445 32.7059 9.3335 31.9987 9.3335ZM31.9987 13.3335C31.6451 13.3335 31.3059 13.193 31.0559 12.943C30.8058 12.6929 30.6654 12.3538 30.6654 12.0002C30.6654 11.6465 30.8058 11.3074 31.0559 11.0574C31.3059 10.8073 31.6451 10.6668 31.9987 10.6668C32.3523 10.6668 32.6915 10.8073 32.9415 11.0574C33.1916 11.3074 33.332 11.6465 33.332 12.0002C33.332 12.3538 33.1916 12.6929 32.9415 12.943C32.6915 13.193 32.3523 13.3335 31.9987 13.3335ZM7.9987 16.0002C7.29145 16.0002 6.61318 16.2811 6.11308 16.7812C5.61298 17.2813 5.33203 17.9596 5.33203 18.6668C5.33203 19.3741 5.61298 20.0524 6.11308 20.5524C6.61318 21.0525 7.29145 21.3335 7.9987 21.3335C8.70594 21.3335 9.38422 21.0525 9.88432 20.5524C10.3844 20.0524 10.6654 19.3741 10.6654 18.6668C10.6654 17.9596 10.3844 17.2813 9.88432 16.7812C9.38422 16.2811 8.70594 16.0002 7.9987 16.0002ZM7.9987 20.0002C7.64508 20.0002 7.30594 19.8597 7.05589 19.6096C6.80584 19.3596 6.66536 19.0205 6.66536 18.6668C6.66536 18.3132 6.80584 17.9741 7.05589 17.724C7.30594 17.474 7.64508 17.3335 7.9987 17.3335C8.35232 17.3335 8.69146 17.474 8.94151 17.724C9.19156 17.9741 9.33203 18.3132 9.33203 18.6668C9.33203 19.0205 9.19156 19.3596 8.94151 19.6096C8.69146 19.8597 8.35232 20.0002 7.9987 20.0002ZM7.9987 22.6668C7.29145 22.6668 6.61318 22.9478 6.11308 23.4479C5.61298 23.948 5.33203 24.6263 5.33203 25.3335C5.33203 26.0407 5.61298 26.719 6.11308 27.2191C6.61318 27.7192 7.29145 28.0002 7.9987 28.0002C8.70594 28.0002 9.38422 27.7192 9.88432 27.2191C10.3844 26.719 10.6654 26.0407 10.6654 25.3335C10.6654 24.6263 10.3844 23.948 9.88432 23.4479C9.38422 22.9478 8.70594 22.6668 7.9987 22.6668ZM7.9987 26.6668C7.64508 26.6668 7.30594 26.5264 7.05589 26.2763C6.80584 26.0263 6.66536 25.6871 6.66536 25.3335C6.66536 24.9799 6.80584 24.6407 7.05589 24.3907C7.30594 24.1406 7.64508 24.0002 7.9987 24.0002C8.35232 24.0002 8.69146 24.1406 8.94151 24.3907C9.19156 24.6407 9.33203 24.9799 9.33203 25.3335C9.33203 25.6871 9.19156 26.0263 8.94151 26.2763C8.69146 26.5264 8.35232 26.6668 7.9987 26.6668ZM15.9987 22.6668C15.2915 22.6668 14.6132 22.9478 14.1131 23.4479C13.613 23.948 13.332 24.6263 13.332 25.3335C13.332 26.0407 13.613 26.719 14.1131 27.2191C14.6132 27.7192 15.2915 28.0002 15.9987 28.0002C16.7059 28.0002 17.3842 27.7192 17.8843 27.2191C18.3844 26.719 18.6654 26.0407 18.6654 25.3335C18.6654 24.6263 18.3844 23.948 17.8843 23.4479C17.3842 22.9478 16.7059 22.6668 15.9987 22.6668ZM15.9987 26.6668C15.6451 26.6668 15.3059 26.5264 15.0559 26.2763C14.8058 26.0263 14.6654 25.6871 14.6654 25.3335C14.6654 24.9799 14.8058 24.6407 15.0559 24.3907C15.3059 24.1406 15.6451 24.0002 15.9987 24.0002C16.3523 24.0002 16.6915 24.1406 16.9415 24.3907C17.1916 24.6407 17.332 24.9799 17.332 25.3335C17.332 25.6871 17.1916 26.0263 16.9415 26.2763C16.6915 26.5264 16.3523 26.6668 15.9987 26.6668ZM23.9987 22.6668C23.2915 22.6668 22.6132 22.9478 22.1131 23.4479C21.613 23.948 21.332 24.6263 21.332 25.3335C21.332 26.0407 21.613 26.719 22.1131 27.2191C22.6132 27.7192 23.2915 28.0002 23.9987 28.0002C24.7059 28.0002 25.3842 27.7192 25.8843 27.2191C26.3844 26.719 26.6654 26.0407 26.6654 25.3335C26.6654 24.6263 26.3844 23.948 25.8843 23.4479C25.3842 22.9478 24.7059 22.6668 23.9987 22.6668ZM23.9987 26.6668C23.6451 26.6668 23.3059 26.5264 23.0559 26.2763C22.8058 26.0263 22.6654 25.6871 22.6654 25.3335C22.6654 24.9799 22.8058 24.6407 23.0559 24.3907C23.3059 24.1406 23.6451 24.0002 23.9987 24.0002C24.3523 24.0002 24.6915 24.1406 24.9415 24.3907C25.1916 24.6407 25.332 24.9799 25.332 25.3335C25.332 25.6871 25.1916 26.0263 24.9415 26.2763C24.6915 26.5264 24.3523 26.6668 23.9987 26.6668ZM31.9987 22.6668C31.2915 22.6668 30.6132 22.9478 30.1131 23.4479C29.613 23.948 29.332 24.6263 29.332 25.3335C29.332 26.0407 29.613 26.719 30.1131 27.2191C30.6132 27.7192 31.2915 28.0002 31.9987 28.0002C32.7059 28.0002 33.3842 27.7192 33.8843 27.2191C34.3844 26.719 34.6654 26.0407 34.6654 25.3335C34.6654 24.6263 34.3844 23.948 33.8843 23.4479C33.3842 22.9478 32.7059 22.6668 31.9987 22.6668ZM31.9987 26.6668C31.6451 26.6668 31.3059 26.5264 31.0559 26.2763C30.8058 26.0263 30.6654 25.6871 30.6654 25.3335C30.6654 24.9799 30.8058 24.6407 31.0559 24.3907C31.3059 24.1406 31.6451 24.0002 31.9987 24.0002C32.3523 24.0002 32.6915 24.1406 32.9415 24.3907C33.1916 24.6407 33.332 24.9799 33.332 25.3335C33.332 25.6871 33.1916 26.0263 32.9415 26.2763C32.6915 26.5264 32.3523 26.6668 31.9987 26.6668ZM7.9987 29.3335C7.29145 29.3335 6.61318 29.6145 6.11308 30.1145C5.61298 30.6146 5.33203 31.2929 5.33203 32.0002C5.33203 32.7074 5.61298 33.3857 6.11308 33.8858C6.61318 34.3859 7.29145 34.6668 7.9987 34.6668C8.70594 34.6668 9.38422 34.3859 9.88432 33.8858C10.3844 33.3857 10.6654 32.7074 10.6654 32.0002C10.6654 31.2929 10.3844 30.6146 9.88432 30.1145C9.38422 29.6145 8.70594 29.3335 7.9987 29.3335ZM7.9987 33.3335C7.64508 33.3335 7.30594 33.193 7.05589 32.943C6.80584 32.6929 6.66536 32.3538 6.66536 32.0002C6.66536 31.6465 6.80584 31.3074 7.05589 31.0574C7.30594 30.8073 7.64508 30.6668 7.9987 30.6668C8.35232 30.6668 8.69146 30.8073 8.94151 31.0574C9.19156 31.3074 9.33203 31.6465 9.33203 32.0002C9.33203 32.3538 9.19156 32.6929 8.94151 32.943C8.69146 33.193 8.35232 33.3335 7.9987 33.3335ZM15.9987 29.3335C15.2915 29.3335 14.6132 29.6145 14.1131 30.1145C13.613 30.6146 13.332 31.2929 13.332 32.0002C13.332 32.7074 13.613 33.3857 14.1131 33.8858C14.6132 34.3859 15.2915 34.6668 15.9987 34.6668C16.7059 34.6668 17.3842 34.3859 17.8843 33.8858C18.3844 33.3857 18.6654 32.7074 18.6654 32.0002C18.6654 31.2929 18.3844 30.6146 17.8843 30.1145C17.3842 29.6145 16.7059 29.3335 15.9987 29.3335ZM15.9987 33.3335C15.6451 33.3335 15.3059 33.193 15.0559 32.943C14.8058 32.6929 14.6654 32.3538 14.6654 32.0002C14.6654 31.6465 14.8058 31.3074 15.0559 31.0574C15.3059 30.8073 15.6451 30.6668 15.9987 30.6668C16.3523 30.6668 16.6915 30.8073 16.9415 31.0574C17.1916 31.3074 17.332 31.6465 17.332 32.0002C17.332 32.3538 17.1916 32.6929 16.9415 32.943C16.6915 33.193 16.3523 33.3335 15.9987 33.3335ZM23.9987 29.3335C23.2915 29.3335 22.6132 29.6145 22.1131 30.1145C21.613 30.6146 21.332 31.2929 21.332 32.0002C21.332 32.7074 21.613 33.3857 22.1131 33.8858C22.6132 34.3859 23.2915 34.6668 23.9987 34.6668C24.7059 34.6668 25.3842 34.3859 25.8843 33.8858C26.3844 33.3857 26.6654 32.7074 26.6654 32.0002C26.6654 31.2929 26.3844 30.6146 25.8843 30.1145C25.3842 29.6145 24.7059 29.3335 23.9987 29.3335ZM23.9987 33.3335C23.6451 33.3335 23.3059 33.193 23.0559 32.943C22.8058 32.6929 22.6654 32.3538 22.6654 32.0002C22.6654 31.6465 22.8058 31.3074 23.0559 31.0574C23.3059 30.8073 23.6451 30.6668 23.9987 30.6668C24.3523 30.6668 24.6915 30.8073 24.9415 31.0574C25.1916 31.3074 25.332 31.6465 25.332 32.0002C25.332 32.3538 25.1916 32.6929 24.9415 32.943C24.6915 33.193 24.3523 33.3335 23.9987 33.3335ZM31.9987 29.3335C31.2915 29.3335 30.6132 29.6145 30.1131 30.1145C29.613 30.6146 29.332 31.2929 29.332 32.0002C29.332 32.7074 29.613 33.3857 30.1131 33.8858C30.6132 34.3859 31.2915 34.6668 31.9987 34.6668C32.7059 34.6668 33.3842 34.3859 33.8843 33.8858C34.3844 33.3857 34.6654 32.7074 34.6654 32.0002C34.6654 31.2929 34.3844 30.6146 33.8843 30.1145C33.3842 29.6145 32.7059 29.3335 31.9987 29.3335ZM31.9987 33.3335C31.6451 33.3335 31.3059 33.193 31.0559 32.943C30.8058 32.6929 30.6654 32.3538 30.6654 32.0002C30.6654 31.6465 30.8058 31.3074 31.0559 31.0574C31.3059 30.8073 31.6451 30.6668 31.9987 30.6668C32.3523 30.6668 32.6915 30.8073 32.9415 31.0574C33.1916 31.3074 33.332 31.6465 33.332 32.0002C33.332 32.3538 33.1916 32.6929 32.9415 32.943C32.6915 33.193 32.3523 33.3335 31.9987 33.3335ZM15.332 21.3335C15.3542 21.3348 15.3765 21.3348 15.3987 21.3335C15.4968 21.3238 15.5915 21.2924 15.676 21.2417C15.7605 21.191 15.8327 21.1221 15.8874 21.0402L18.554 17.0402C18.6026 16.9673 18.6364 16.8856 18.6534 16.7997C18.6704 16.7138 18.6704 16.6254 18.6532 16.5396C18.6361 16.4537 18.6022 16.3721 18.5535 16.2993C18.5048 16.2265 18.4422 16.1641 18.3694 16.1155C18.2965 16.0669 18.2148 16.0331 18.1289 16.0161C18.043 15.9991 17.9546 15.9992 17.8688 16.0163C17.7829 16.0335 17.7013 16.0674 17.6285 16.1161C17.5557 16.1648 17.4933 16.2273 17.4447 16.3002L15.2287 19.6202L14.47 18.8622C14.3443 18.7407 14.1759 18.6735 14.0011 18.675C13.8263 18.6766 13.6591 18.7467 13.5355 18.8703C13.4119 18.9939 13.3418 19.1611 13.3402 19.3359C13.3387 19.5107 13.4059 19.6791 13.5274 19.8048L14.8607 21.1382C14.9857 21.2632 15.1552 21.3335 15.332 21.3335ZM23.332 21.3335C23.3542 21.3348 23.3765 21.3348 23.3987 21.3335C23.4968 21.3238 23.5915 21.2924 23.676 21.2417C23.7605 21.191 23.8327 21.1221 23.8874 21.0402L26.554 17.0402C26.6522 16.8931 26.6878 16.713 26.6532 16.5396C26.6186 16.3662 26.5165 16.2136 26.3694 16.1155C26.2223 16.0174 26.0422 15.9817 25.8688 16.0163C25.6954 16.051 25.5428 16.1531 25.4447 16.3002L23.2287 19.6202L22.47 18.8622C22.3443 18.7407 22.1759 18.6735 22.0011 18.675C21.8263 18.6766 21.6591 18.7467 21.5355 18.8703C21.4119 18.9939 21.3418 19.1611 21.3402 19.3359C21.3387 19.5107 21.4059 19.6791 21.5274 19.8048L22.8607 21.1382C22.9857 21.2632 23.1552 21.3335 23.332 21.3335ZM31.332 21.3335C31.3542 21.3348 31.3765 21.3348 31.3987 21.3335C31.4968 21.3238 31.5915 21.2924 31.676 21.2417C31.7605 21.191 31.8327 21.1221 31.8874 21.0402L34.554 17.0402C34.6522 16.8931 34.6878 16.713 34.6532 16.5396C34.6186 16.3662 34.5165 16.2136 34.3694 16.1155C34.2223 16.0174 34.0422 15.9817 33.8688 16.0163C33.6954 16.051 33.5428 16.1531 33.4447 16.3002L31.2287 19.6202L30.47 18.8622C30.3443 18.7407 30.1759 18.6735 30.0011 18.675C29.8263 18.6766 29.6591 18.7467 29.5355 18.8703C29.4119 18.9939 29.3418 19.1611 29.3402 19.3359C29.3387 19.5107 29.4059 19.6791 29.5274 19.8048L30.8607 21.1382C30.9857 21.2632 31.1552 21.3335 31.332 21.3335Z" fill="white"/>
</svg>
