<svg width="82" height="82" viewBox="0 0 82 82" fill="none" xmlns="http://www.w3.org/2000/svg">
<path d="M63.0342 43.2763C62.5115 48.343 60.2664 53.0771 56.6738 56.6879C53.0812 60.2988 48.3585 62.5678 43.2945 63.1161C43.1925 63.1149 43.0913 63.1341 42.9969 63.1726C42.9024 63.211 42.8166 63.268 42.7445 63.3401C42.6724 63.4122 42.6154 63.498 42.577 63.5925C42.5385 63.6869 42.5193 63.7881 42.5205 63.8901V80.4521C42.5205 80.8627 42.3575 81.2564 42.0672 81.5466C41.7769 81.8369 41.3832 82 40.9727 82C40.5622 82 40.1685 81.8369 39.8782 81.5466C39.5879 81.2564 39.4248 80.8627 39.4248 80.4521V74.4428C39.4101 74.2424 39.3238 74.054 39.1817 73.912C39.0397 73.7699 38.8513 73.6836 38.6509 73.6689C31.7667 73.1118 25.2368 70.3848 20.001 65.8804C14.7652 61.376 11.0937 55.3265 9.51477 48.6027C9.456 48.4035 9.43792 48.1945 9.46161 47.9881C9.48531 47.7818 9.55029 47.5823 9.65269 47.4016C9.75509 47.2209 9.89281 47.0627 10.0576 46.9363C10.2225 46.8099 10.4111 46.718 10.6122 46.6661C10.8133 46.6141 11.0228 46.6032 11.2282 46.6339C11.4336 46.6646 11.6308 46.7363 11.8079 46.8448C11.985 46.9533 12.1385 47.0963 12.2591 47.2654C12.3798 47.4344 12.4652 47.626 12.5103 47.8288C13.914 53.8642 17.1871 59.3025 21.8629 63.3686C26.5388 67.4346 32.3789 69.9209 38.5507 70.473C38.7511 70.5732 38.9423 70.473 39.1335 70.2818C39.2345 70.2248 39.3163 70.1388 39.3682 70.035C39.4201 69.9312 39.4398 69.8142 39.4248 69.6991V63.8901C39.4261 63.7881 39.4069 63.6869 39.3684 63.5925C39.3299 63.498 39.273 63.4122 39.2009 63.3401C39.1288 63.268 39.043 63.211 38.9485 63.1726C38.8541 63.1341 38.7529 63.1149 38.6509 63.1161C33.611 62.5547 28.908 60.309 25.3029 56.7426C21.6986 53.1201 19.4484 48.3691 18.9294 43.2854C18.8999 43.0993 18.8064 42.9294 18.6652 42.8048C18.524 42.6802 18.3437 42.6086 18.1555 42.6025H1.59338C1.17079 42.6025 0.765508 42.4346 0.466691 42.1358C0.167874 41.837 0 41.4317 0 41.0091C0 40.5865 0.167874 40.1812 0.466691 39.8824C0.765508 39.5836 1.17079 39.4157 1.59338 39.4157H7.88497C8.07271 39.4079 8.25205 39.3358 8.39295 39.2114C8.53385 39.0871 8.62774 38.9181 8.65889 38.7328C9.07205 31.8589 11.6261 25.2866 15.9629 19.9374C20.2998 14.5882 26.2019 10.7303 32.8419 8.90473C33.244 8.82841 33.6601 8.90883 34.0048 9.12951C34.3494 9.35018 34.5966 9.69439 34.6956 10.0915C34.7946 10.4887 34.7379 10.9086 34.5371 11.2653C34.3363 11.6219 34.0067 11.8882 33.6158 12.0096C27.6753 13.6114 22.3834 17.0284 18.4789 21.7834C14.5743 26.5383 12.2522 32.3939 11.8366 38.5325C11.8109 38.6456 11.8119 38.7631 11.8395 38.8758C11.8672 38.9884 11.9207 39.093 11.9958 39.1814C12.0709 39.2697 12.1655 39.3394 12.2722 39.3848C12.3789 39.4302 12.4947 39.4502 12.6105 39.443H18.119C18.3073 39.4369 18.4875 39.3654 18.6288 39.2408C18.77 39.1161 18.8634 38.9462 18.893 38.7602C19.4085 33.6841 21.6528 28.9394 25.2498 25.3209C28.8468 21.7023 33.578 19.4298 38.6509 18.8839C38.7529 18.8851 38.8541 18.8659 38.9485 18.8274C39.043 18.789 39.1288 18.732 39.2009 18.6599C39.273 18.5878 39.3299 18.502 39.3684 18.4075C39.4069 18.3131 39.4261 18.2119 39.4248 18.1099V1.54786C39.4248 1.13734 39.5879 0.743636 39.8782 0.453357C40.1685 0.163077 40.5622 0 40.9727 0C41.3832 0 41.7769 0.163077 42.0672 0.453357C42.3575 0.743636 42.5205 1.13734 42.5205 1.54786V20.3316C42.5309 20.5507 42.4954 20.7697 42.4163 20.9743C42.3371 21.179 42.2161 21.3648 42.061 21.52C41.9058 21.6751 41.7199 21.7962 41.5153 21.8753C41.3106 21.9545 41.0917 21.99 40.8725 21.9796C24.0373 21.9796 15.6243 42.5934 27.5245 54.5028C39.4248 66.4122 59.7382 57.8899 60.0295 41C60.0271 40.7961 60.0655 40.5937 60.1424 40.4048C60.2193 40.2159 60.3332 40.0443 60.4775 39.9001C60.6217 39.7558 60.7933 39.6419 60.9822 39.565C61.1711 39.4881 61.3734 39.4497 61.5774 39.4521H80.352C80.7746 39.4521 81.1799 39.62 81.4787 39.9188C81.7775 40.2177 81.9454 40.6229 81.9454 41.0455C81.9454 41.4681 81.7775 41.8734 81.4787 42.1722C81.1799 42.471 80.7746 42.6389 80.352 42.6389H74.1606C73.9685 42.6312 73.7808 42.6979 73.6366 42.8251C73.4924 42.9523 73.4029 43.1302 73.3866 43.3218C72.8842 50.2386 70.2092 56.8199 65.7436 62.1259C61.278 67.4319 55.2502 71.1914 48.5208 72.8676C46.4903 73.3502 45.7893 70.2545 47.8379 69.7719C53.8476 68.2777 59.2372 64.9357 63.2472 60.2167C67.2573 55.4977 69.6859 49.6396 70.1908 43.4675C70.2164 43.3544 70.2154 43.2369 70.1878 43.1242C70.1601 43.0116 70.1067 42.907 70.0316 42.8186C69.9565 42.7303 69.8618 42.6606 69.7551 42.6152C69.6484 42.5698 69.5326 42.5498 69.4168 42.557H63.8081C63.6199 42.5631 63.4396 42.6346 63.2984 42.7593C63.1571 42.8839 63.0637 43.0538 63.0342 43.2398V43.2763ZM75.5718 17.5272L64.3818 28.6536C64.1083 28.9504 63.7287 29.1271 63.3256 29.1452H55.8685C55.665 29.1631 55.4685 29.2286 55.2949 29.3364L42.038 42.6935C41.7399 42.972 41.3454 43.124 40.9375 43.1175C40.5296 43.111 40.1401 42.9465 39.8511 42.6587C39.562 42.3708 39.3959 41.982 39.3877 41.5741C39.3796 41.1663 39.53 40.7711 39.8072 40.4719L53.0642 27.1057C53.1534 27.061 53.2281 26.992 53.2796 26.9066C53.3312 26.8211 53.3575 26.7229 53.3555 26.6231V19.1479C53.3537 18.9326 53.3955 18.7191 53.4784 18.5203C53.5613 18.3216 53.6837 18.1417 53.8381 17.9916L64.9645 6.87431C65.1793 6.64204 65.4591 6.47985 65.7675 6.40887C66.0758 6.3379 66.3984 6.36142 66.6932 6.47638C66.9879 6.59135 67.2412 6.79242 67.4201 7.0534C67.599 7.31439 67.6951 7.6232 67.696 7.9396V14.04C67.7089 14.241 67.7945 14.4305 67.937 14.5729C68.0794 14.7154 68.2689 14.801 68.4699 14.8139H74.4701C74.7902 14.8055 75.1053 14.8937 75.3745 15.067C75.6437 15.2404 75.8544 15.4908 75.9792 15.7856C76.104 16.0804 76.1371 16.406 76.0742 16.7199C76.0113 17.0338 75.8553 17.3215 75.6265 17.5454L75.5718 17.5272ZM62.8248 25.7217L69.3076 19.239C69.4202 19.1349 69.4998 19 69.5365 18.8512C69.5732 18.7023 69.5653 18.5459 69.514 18.4014C69.4626 18.2569 69.3699 18.1307 69.2474 18.0384C69.1249 17.9461 68.9781 17.8919 68.825 17.8823H66.0935C65.6706 17.8922 65.2608 17.7354 64.9525 17.4459C64.6442 17.1563 64.4621 16.7571 64.4455 16.3344V13.6849C64.4447 13.5281 64.398 13.3749 64.311 13.2444C64.2241 13.1139 64.1007 13.0118 63.9563 12.9508C63.8119 12.8897 63.6527 12.8724 63.4985 12.9009C63.3443 12.9294 63.2019 13.0026 63.0888 13.1113L56.7153 19.594C56.5452 19.7423 56.4404 19.9517 56.4239 20.1768V25.2119C56.4227 25.3138 56.4419 25.415 56.4804 25.5095C56.5188 25.6039 56.5758 25.6897 56.6479 25.7618C56.72 25.8339 56.8058 25.8909 56.9003 25.9294C56.9947 25.9678 57.0959 25.987 57.1979 25.9858H62.324C62.5243 25.9858 62.7155 25.9858 62.8066 25.7855L62.8248 25.7217ZM54.1204 41.0182C54.124 43.6215 53.3552 46.1674 51.9113 48.3336C50.4674 50.4998 48.4133 52.189 46.009 53.1873C43.6047 54.1857 40.9583 54.4483 38.4046 53.942C35.851 53.4356 33.505 52.1831 31.6636 50.3429C29.8221 48.5027 28.5679 46.1576 28.0598 43.6043C27.5517 41.051 27.8125 38.4044 28.8092 35.9994C29.8058 33.5944 31.4936 31.5392 33.6588 30.0938C35.824 28.6484 38.3694 27.8778 40.9727 27.8796C41.3639 27.9096 41.7293 28.0862 41.9959 28.374C42.2626 28.6618 42.4107 29.0397 42.4107 29.432C42.4107 29.8244 42.2626 30.2023 41.9959 30.4901C41.7293 30.7779 41.3639 30.9545 40.9727 30.9845C38.3164 30.9845 35.7689 32.0397 33.8906 33.9179C32.0123 35.7962 30.9571 38.3437 30.9571 41C30.9571 43.6563 32.0123 46.2038 33.8906 48.0821C35.7689 49.9603 38.3164 51.0155 40.9727 51.0155C46.7817 51.0155 50.6513 46.6633 50.9336 41C50.9245 40.7803 50.9607 40.5611 51.04 40.3561C51.1193 40.151 51.2399 39.9644 51.3943 39.808C51.5488 39.6515 51.7338 39.5285 51.9378 39.4466C52.1419 39.3647 52.3606 39.3257 52.5804 39.3319C52.8001 39.3382 53.0163 39.3896 53.2153 39.483C53.4144 39.5764 53.5921 39.7097 53.7374 39.8747C53.8827 40.0397 53.9925 40.2328 54.0599 40.4421C54.1274 40.6514 54.151 40.8723 54.1295 41.091L54.1204 41.0182Z" fill="white"/>
</svg>
