<svg width="34" height="42" viewBox="0 0 34 42" fill="none" xmlns="http://www.w3.org/2000/svg">
<path d="M16.9396 35.6102C15.791 35.6102 14.8565 36.5447 14.8565 37.6933C14.8565 38.8419 15.791 39.7764 16.9396 39.7764C18.0883 39.7764 19.0227 38.8419 19.0227 37.6933C19.0227 36.5447 18.0883 35.6102 16.9396 35.6102ZM16.9396 38.546C16.4695 38.546 16.087 38.1635 16.087 37.6933C16.087 37.2232 16.4695 36.8407 16.9396 36.8407C17.4097 36.8407 17.7923 37.2232 17.7923 37.6933C17.7923 38.1635 17.4097 38.546 16.9396 38.546ZM26.482 31.4371C26.6452 31.4371 26.8016 31.3722 26.917 31.2569C27.0324 31.1415 27.0972 30.985 27.0972 30.8218V30.3212C28.186 30.0588 28.8844 29.1349 29.0376 28.2239C29.2356 27.0462 28.6203 26.0225 27.4701 25.616C26.7959 25.3777 26.0493 25.089 25.6233 24.7548C25.4568 24.6243 25.3849 24.3512 25.4399 24.0592C25.4938 23.773 25.6881 23.426 26.0712 23.3106C26.9326 23.0513 27.4943 23.5142 27.5335 23.5479L27.6779 23.6803C27.7985 23.7884 27.9568 23.8445 28.1185 23.8366C28.2803 23.8287 28.4323 23.7574 28.5418 23.6381C28.6513 23.5188 28.7093 23.3612 28.7034 23.1994C28.6974 23.0376 28.6279 22.8846 28.51 22.7737L28.3632 22.639C28.3343 22.6124 27.8659 22.1907 27.0972 22.0476V21.6522C27.0972 21.3124 26.8218 21.037 26.482 21.037C26.1421 21.037 25.8668 21.3124 25.8668 21.6522V22.091C25.8171 22.1034 25.767 22.1171 25.7163 22.1323C24.9542 22.3619 24.385 23.0129 24.2308 23.8312C24.0895 24.5809 24.3321 25.3058 24.8639 25.7229C25.3202 26.0808 25.9564 26.3858 27.0601 26.776C27.9124 27.0773 27.8604 27.8042 27.8243 28.0198C27.7321 28.5674 27.2716 29.1592 26.478 29.1645C25.7503 29.17 25.5033 29.1301 24.9338 28.7574C24.7973 28.6681 24.6308 28.6367 24.4711 28.6701C24.3114 28.7035 24.1715 28.799 24.0822 28.9355C24.0379 29.0031 24.0074 29.0788 23.9924 29.1582C23.9775 29.2376 23.9783 29.3191 23.9948 29.3982C24.0113 29.4773 24.0433 29.5524 24.0888 29.6191C24.1344 29.6858 24.1926 29.7429 24.2603 29.7872C24.8882 30.198 25.3277 30.3363 25.8668 30.3784V30.8217C25.8668 30.9025 25.8827 30.9825 25.9136 31.0571C25.9445 31.1318 25.9898 31.1996 26.0469 31.2568C26.1041 31.3139 26.1719 31.3593 26.2465 31.3902C26.3212 31.4211 26.4012 31.4371 26.482 31.4371ZM5.12695 9.60584H7.89592C8.91368 9.60584 9.74162 8.7779 9.74162 7.76014V4.99109C9.74162 3.97333 8.91368 3.14539 7.89592 3.14539H5.12695C4.10919 3.14539 3.28125 3.97333 3.28125 4.99109V7.76014C3.28125 8.7779 4.10919 9.60584 5.12695 9.60584ZM4.51172 4.99109C4.51172 4.65181 4.78767 4.37585 5.12695 4.37585H7.89592C8.2352 4.37585 8.51115 4.65181 8.51115 4.99109V7.76014C8.51115 8.09942 8.2352 8.37537 7.89592 8.37537H5.12695C4.78767 8.37537 4.51172 8.09942 4.51172 7.76014V4.99109ZM3.28125 16.706C3.28125 17.7237 4.10919 18.5517 5.12695 18.5517H7.89592C8.91368 18.5517 9.74162 17.7237 9.74162 16.706V13.937C9.74162 12.9192 8.91368 12.0913 7.89592 12.0913H5.12695C4.10919 12.0913 3.28125 12.9192 3.28125 13.937V16.706ZM4.51172 13.9369C4.51172 13.5976 4.78767 13.3217 5.12695 13.3217H7.89592C8.2352 13.3217 8.51115 13.5976 8.51115 13.9369V16.7059C8.51115 17.0452 8.2352 17.3211 7.89592 17.3211H5.12695C4.78767 17.3211 4.51172 17.0452 4.51172 16.7059V13.9369ZM12.1078 9.60584H28.4574C28.7972 9.60584 29.0726 9.33038 29.0726 8.9906C29.0726 8.65083 28.7972 8.37537 28.4574 8.37537H12.1078C11.9446 8.37537 11.7882 8.44019 11.6728 8.55557C11.5574 8.67095 11.4926 8.82743 11.4926 8.9906C11.4926 9.15377 11.5574 9.31026 11.6728 9.42564C11.7882 9.54102 11.9446 9.60584 12.1078 9.60584ZM12.1078 15.9367H28.4574C28.7972 15.9367 29.0726 15.6612 29.0726 15.3214C29.0726 14.9817 28.7972 14.7062 28.4574 14.7062H12.1078C11.9446 14.7062 11.7882 14.771 11.6728 14.8864C11.5574 15.0018 11.4926 15.1583 11.4926 15.3214C11.4926 15.4846 11.5574 15.6411 11.6728 15.7565C11.7882 15.8719 11.9446 15.9367 12.1078 15.9367ZM12.1078 24.8825H20.2826C20.6225 24.8825 20.8979 24.6071 20.8979 24.2673C20.8979 23.9275 20.6225 23.6521 20.2826 23.6521H12.1078C11.9446 23.6521 11.7882 23.7169 11.6728 23.8322C11.5574 23.9476 11.4926 24.1041 11.4926 24.2673C11.4926 24.4305 11.5574 24.5869 11.6728 24.7023C11.7882 24.8177 11.9446 24.8825 12.1078 24.8825ZM12.1078 27.4974H20.2826C20.6225 27.4974 20.8979 27.222 20.8979 26.8822C20.8979 26.5424 20.6225 26.267 20.2826 26.267H12.1078C11.9446 26.267 11.7882 26.3318 11.6728 26.4472C11.5574 26.5625 11.4926 26.719 11.4926 26.8822C11.4926 27.0454 11.5574 27.2019 11.6728 27.3172C11.7882 27.4326 11.9446 27.4974 12.1078 27.4974ZM3.89648 31.4718H20.2826C20.6225 31.4718 20.8979 31.1963 20.8979 30.8565C20.8979 30.5168 20.6225 30.2413 20.2826 30.2413H3.89648C3.73331 30.2413 3.57683 30.3061 3.46145 30.4215C3.34607 30.5369 3.28125 30.6934 3.28125 30.8565C3.28125 31.0197 3.34607 31.1762 3.46145 31.2916C3.57683 31.4069 3.73331 31.4718 3.89648 31.4718Z" fill="white"/>
<path d="M30.3926 0H3.48633C1.56393 0 0 1.56393 0 3.48633V16.7883C0 16.9514 0.064819 17.1079 0.180198 17.2233C0.295577 17.3387 0.452064 17.4035 0.615234 17.4035C0.778405 17.4035 0.934892 17.3387 1.05027 17.2233C1.16565 17.1079 1.23047 16.9514 1.23047 16.7883V3.48633C1.23047 2.24241 2.24241 1.23047 3.48633 1.23047H30.3926C31.6365 1.23047 32.6484 2.24241 32.6484 3.48633V33.3867H1.23047V19.4695C1.23047 19.3064 1.16565 19.1499 1.05027 19.0345C0.934892 18.9191 0.778405 18.8543 0.615234 18.8543C0.452064 18.8543 0.295577 18.9191 0.180198 19.0345C0.064819 19.1499 0 19.3064 0 19.4695V38.5137C0 40.4361 1.56393 42 3.48633 42H30.3926C32.315 42 33.8789 40.4361 33.8789 38.5137V3.48633C33.8789 1.56393 32.315 0 30.3926 0ZM30.3926 40.7695H3.48633C2.24241 40.7695 1.23047 39.7576 1.23047 38.5137V34.6172H32.6484V38.5137C32.6484 39.7576 31.6365 40.7695 30.3926 40.7695Z" fill="white"/>
<path d="M12.1078 18.5517H28.4574C28.7972 18.5517 29.0726 18.2762 29.0726 17.9365C29.0726 17.5967 28.7972 17.3212 28.4574 17.3212H12.1078C11.9446 17.3212 11.7882 17.3861 11.6728 17.5014C11.5574 17.6168 11.4926 17.7733 11.4926 17.9365C11.4926 18.0996 11.5574 18.2561 11.6728 18.3715C11.7882 18.4869 11.9446 18.5517 12.1078 18.5517ZM28.4574 6.99088C28.7972 6.99088 29.0726 6.71541 29.0726 6.37564C29.0726 6.03587 28.7972 5.76041 28.4574 5.76041H25.0834C24.7435 5.76041 24.4681 6.03587 24.4681 6.37564C24.4681 6.71541 24.7435 6.99088 25.0834 6.99088H28.4574ZM12.1078 6.99088H22.4021C22.7419 6.99088 23.0173 6.71541 23.0173 6.37564C23.0173 6.03587 22.7419 5.76041 22.4021 5.76041H12.1078C11.9446 5.76041 11.7882 5.82523 11.6728 5.9406C11.5574 6.05598 11.4926 6.21247 11.4926 6.37564C11.4926 6.53881 11.5574 6.6953 11.6728 6.81068C11.7882 6.92606 11.9446 6.99088 12.1078 6.99088ZM3.28125 25.6518C3.28125 26.6695 4.10919 27.4975 5.12695 27.4975C5.29012 27.4975 5.44661 27.4326 5.56199 27.3173C5.67737 27.2019 5.74219 27.0454 5.74219 26.8822C5.74219 26.7191 5.67737 26.5626 5.56199 26.4472C5.44661 26.3318 5.29012 26.267 5.12695 26.267C4.78767 26.267 4.51172 25.991 4.51172 25.6518V22.8828C4.51172 22.5435 4.78767 22.2676 5.12695 22.2676H7.89592C8.2352 22.2676 8.51115 22.5435 8.51115 22.8828V25.6518C8.51115 25.991 8.2352 26.267 7.89592 26.267C7.73275 26.267 7.57626 26.3318 7.46088 26.4472C7.3455 26.5626 7.28068 26.7191 7.28068 26.8822C7.28068 27.0454 7.3455 27.2019 7.46088 27.3173C7.57626 27.4326 7.73275 27.4975 7.89592 27.4975C8.91368 27.4975 9.74162 26.6695 9.74162 25.6518V22.8828C9.74162 21.865 8.91368 21.0371 7.89592 21.0371H5.12695C4.10919 21.0371 3.28125 21.865 3.28125 22.8828V25.6518Z" fill="white"/>
</svg>
