<svg width="45" height="42" viewBox="0 0 45 42" fill="none" xmlns="http://www.w3.org/2000/svg">
<path d="M18.0123 13.9277C18.0123 13.7419 18.0861 13.5637 18.2175 13.4323C18.3488 13.3009 18.527 13.2271 18.7128 13.2271H32.2844C32.4702 13.2271 32.6484 13.3009 32.7798 13.4323C32.9112 13.5637 32.985 13.7419 32.985 13.9277C32.985 14.1135 32.9112 14.2916 32.7798 14.423C32.6484 14.5544 32.4702 14.6282 32.2844 14.6282H18.7128C18.527 14.6282 18.3488 14.5544 18.2175 14.423C18.0861 14.2916 18.0123 14.1135 18.0123 13.9277ZM18.7128 10.2283H32.2844C32.4702 10.2283 32.6484 10.1545 32.7798 10.0231C32.9112 9.89172 32.985 9.71353 32.985 9.52773C32.985 9.34194 32.9112 9.16375 32.7798 9.03238C32.6484 8.901 32.4702 8.82719 32.2844 8.82719H18.7128C18.527 8.82719 18.3488 8.901 18.2175 9.03238C18.0861 9.16375 18.0123 9.34194 18.0123 9.52773C18.0123 9.71353 18.0861 9.89172 18.2175 10.0231C18.3488 10.1545 18.527 10.2283 18.7128 10.2283ZM18.7128 5.82817H32.2844C32.4702 5.82817 32.6484 5.75436 32.7798 5.62298C32.9112 5.49161 32.985 5.31342 32.985 5.12762C32.985 4.94183 32.9112 4.76364 32.7798 4.63227C32.6484 4.50089 32.4702 4.42708 32.2844 4.42708H18.7128C18.527 4.42708 18.3488 4.50089 18.2175 4.63227C18.0861 4.76364 18.0123 4.94183 18.0123 5.12762C18.0123 5.31342 18.0861 5.49161 18.2175 5.62298C18.3488 5.75436 18.527 5.82817 18.7128 5.82817ZM11.2073 19.0282H32.2844C32.4702 19.0282 32.6484 18.9544 32.7798 18.823C32.9112 18.6917 32.985 18.5135 32.985 18.3277C32.985 18.1419 32.9112 17.9637 32.7798 17.8323C32.6484 17.701 32.4702 17.6271 32.2844 17.6271H11.2073C11.0215 17.6271 10.8433 17.701 10.7119 17.8323C10.5806 17.9637 10.5067 18.1419 10.5067 18.3277C10.5067 18.5135 10.5806 18.6917 10.7119 18.823C10.8433 18.9544 11.0215 19.0282 11.2073 19.0282ZM11.2073 23.4282H32.2844C32.4702 23.4282 32.6484 23.3544 32.7798 23.223C32.9112 23.0916 32.985 22.9134 32.985 22.7276C32.985 22.5418 32.9112 22.3636 32.7798 22.2323C32.6484 22.1009 32.4702 22.0271 32.2844 22.0271H11.2073C11.0215 22.0271 10.8433 22.1009 10.7119 22.2323C10.5806 22.3636 10.5067 22.5418 10.5067 22.7276C10.5067 22.9134 10.5806 23.0916 10.7119 23.223C10.8433 23.3544 11.0215 23.4282 11.2073 23.4282ZM12.7771 10.3092H13.1281C13.6074 10.3092 13.9974 10.6991 13.9974 11.1785C13.9974 11.6578 13.6074 12.0478 13.1281 12.0478H12.6339C12.357 12.0478 12.0934 11.9119 11.9288 11.6842C11.8199 11.5336 11.6557 11.4325 11.4722 11.403C11.2888 11.3735 11.1012 11.4181 10.9506 11.527C10.8761 11.5809 10.8129 11.649 10.7646 11.7273C10.7164 11.8056 10.684 11.8927 10.6694 11.9835C10.6548 12.0743 10.6583 12.1672 10.6795 12.2567C10.7008 12.3462 10.7395 12.4306 10.7934 12.5051C11.1424 12.9872 11.6657 13.3141 12.2521 13.416V14.0895C12.2521 14.2753 12.3259 14.4535 12.4572 14.5849C12.5886 14.7162 12.7668 14.79 12.9526 14.79C13.1384 14.79 13.3166 14.7162 13.448 14.5849C13.5793 14.4535 13.6531 14.2753 13.6531 14.0895V13.3875C14.6528 13.1501 15.3985 12.2497 15.3985 11.1784C15.3985 9.92652 14.38 8.90802 13.1281 8.90802H12.7771C12.2978 8.90802 11.9078 8.51799 11.9078 8.03864C11.9078 7.5593 12.2978 7.16936 12.7771 7.16936H13.2713C13.5482 7.16936 13.8117 7.30526 13.9764 7.53294C14.0299 7.60834 14.0979 7.67239 14.1763 7.7214C14.2548 7.7704 14.3422 7.80338 14.4334 7.81844C14.5247 7.8335 14.618 7.83034 14.708 7.80914C14.7981 7.78794 14.883 7.74912 14.958 7.69492C15.0329 7.64073 15.0964 7.57222 15.1447 7.49337C15.1931 7.41451 15.2253 7.32686 15.2396 7.23548C15.2539 7.1441 15.2499 7.05079 15.228 6.96094C15.206 6.87109 15.1665 6.78648 15.1117 6.71199C14.7627 6.22991 14.2394 5.90309 13.6531 5.80111V5.12762C13.6531 4.94183 13.5793 4.76364 13.4479 4.63227C13.3165 4.50089 13.1383 4.42708 12.9525 4.42708C12.7667 4.42708 12.5885 4.50089 12.4572 4.63227C12.3258 4.76364 12.252 4.94183 12.252 5.12762V5.82957C11.2525 6.06714 10.5067 6.96751 10.5067 8.03873C10.5067 9.2906 11.5252 10.3092 12.7771 10.3092ZM44.6596 33.4595C44.6596 38.1687 40.8283 42 36.1191 42C34.7143 42 33.3876 41.6588 32.2174 41.0553H7.69564C6.95525 41.0553 6.35296 40.4529 6.35296 39.7126V7.94083H1.34268C0.602292 7.94083 0 7.33854 0 6.59815V3.87698C0 1.73919 1.73919 0 3.87698 0H33.2616C35.3994 0 37.1386 1.73919 37.1386 3.87698V24.9801C41.369 25.4857 44.6596 29.0953 44.6596 33.4595ZM6.35296 6.53974V3.87698C6.35296 2.51171 5.24225 1.40109 3.87707 1.40109C2.5118 1.40109 1.40109 2.51171 1.40109 3.87698V6.53974H6.35296ZM30.2459 39.6542C29.0144 38.486 28.13 36.9555 27.7648 35.2352C27.3482 35.0504 27.0639 34.7887 26.8417 34.584C26.5432 34.309 26.4101 34.1971 26.1101 34.1863C25.7043 34.1681 25.1761 34.6639 24.6651 35.14C23.916 35.8376 23.067 36.6282 21.9131 36.6282C20.2236 36.6282 19.8932 35.1181 19.6747 34.119C19.4133 32.9243 19.2604 32.6828 18.7657 32.6828C18.1188 32.6828 17.8212 32.9518 17.2619 33.5115C16.5292 34.2446 15.5259 35.2488 13.1181 35.2488C12.9323 35.2488 12.7541 35.175 12.6227 35.0436C12.4914 34.9122 12.4176 34.734 12.4176 34.5482C12.4176 34.3624 12.4914 34.1843 12.6227 34.0529C12.7541 33.9215 12.9323 33.8477 13.1181 33.8477C14.9453 33.8477 15.5892 33.2034 16.2709 32.5212C16.8515 31.9402 17.5095 31.2818 18.7657 31.2818C20.4882 31.2818 20.8222 32.809 21.0434 33.8196C21.2996 34.9905 21.4459 35.2272 21.9132 35.2272C22.5158 35.2272 23.096 34.6869 23.7102 34.1148C24.4304 33.4443 25.1766 32.7526 26.1605 32.7862C26.8305 32.8104 27.261 33.0929 27.5799 33.3645C27.6032 31.2461 28.4013 29.3105 29.7041 27.8283H11.2073C11.0215 27.8283 10.8433 27.7545 10.7119 27.6231C10.5806 27.4917 10.5067 27.3135 10.5067 27.1277C10.5067 26.9419 10.5806 26.7638 10.7119 26.6324C10.8433 26.501 11.0215 26.4272 11.2073 26.4272H31.2788C32.5575 25.5444 34.0874 25.001 35.7376 24.928V3.87698C35.7376 2.51171 34.6269 1.40109 33.2617 1.40109H6.85831C7.41744 2.07317 7.75405 2.9365 7.75405 3.87698V39.6542H30.2459ZM43.2585 33.4595C43.2585 29.5228 40.0558 26.3201 36.1191 26.3201C32.1824 26.3201 28.9796 29.5228 28.9796 33.4595C28.9796 37.3962 32.1824 40.5989 36.1191 40.5989C40.0558 40.5989 43.2585 37.3962 43.2585 33.4595ZM40.4634 30.107C40.8191 30.4605 41.0157 30.9315 41.0171 31.4331C41.0185 31.9347 40.8244 32.4067 40.4708 32.7624L36.4668 36.8039C36.1012 37.1715 35.6175 37.3558 35.1339 37.3558C34.661 37.3558 34.1881 37.1797 33.8252 36.8267L31.7891 34.8421C31.43 34.493 31.2283 34.0241 31.2213 33.5226C31.2144 33.0211 31.4032 32.5469 31.7528 32.1874C32.1025 31.8279 32.5713 31.6261 33.0728 31.6191C33.5754 31.6125 34.0486 31.8009 34.4081 32.1506L35.1115 32.8363L37.8072 30.1153L37.808 30.1144C37.9815 29.939 38.188 29.7997 38.4157 29.7047C38.6433 29.6096 38.8876 29.5607 39.1343 29.5607H39.1396C39.3854 29.56 39.6289 29.6079 39.8561 29.7017C40.0833 29.7954 40.2897 29.9331 40.4634 30.107ZM39.616 31.4369C39.616 31.3743 39.6035 31.3123 39.5794 31.2545C39.5553 31.1968 39.52 31.1444 39.4755 31.1003C39.4314 31.0562 39.379 31.0213 39.3214 30.9975C39.2637 30.9737 39.2019 30.9615 39.1395 30.9616H39.1381C39.0756 30.9616 39.0138 30.974 38.9561 30.9981C38.8984 31.0221 38.846 31.0573 38.802 31.1017L35.6177 34.3158C35.4876 34.4471 35.311 34.5217 35.1261 34.5234C34.9413 34.525 34.7633 34.4535 34.631 34.3245L33.4306 33.1543C33.342 33.0678 33.2229 33.0195 33.0991 33.0199L33.0922 33.02C33.0296 33.0207 32.9678 33.0338 32.9102 33.0585C32.8527 33.0833 32.8007 33.1192 32.7571 33.1642C32.6683 33.2555 32.6204 33.3758 32.6222 33.5031C32.6239 33.6304 32.6752 33.7494 32.7664 33.8382L34.8026 35.8229C34.9884 36.0035 35.2891 36.0013 35.4723 35.8168L39.4763 31.7753C39.5208 31.731 39.5561 31.6782 39.5801 31.6201C39.6041 31.562 39.6163 31.4997 39.616 31.4369Z" fill="white"/>
</svg>
