<svg width="42" height="44" viewBox="0 0 42 44" fill="none" xmlns="http://www.w3.org/2000/svg">
<path d="M13.4225 23.6962C16.9159 23.6962 19.7575 20.8546 19.7575 17.3612C19.7575 13.8678 16.915 11.0262 13.4225 11.0262C9.92998 11.0262 7.08751 13.8686 7.08751 17.3612C7.08751 20.8537 9.92911 23.6962 13.4225 23.6962ZM13.4225 12.071C16.339 12.071 18.7118 14.4438 18.7118 17.3603C18.7118 20.2768 16.339 22.6496 13.4225 22.6496C10.506 22.6496 8.13318 20.2768 8.13318 17.3603C8.13318 14.4438 10.506 12.071 13.4225 12.071ZM38.1045 1H22.7751C21.1866 1 19.8943 2.29227 19.8943 3.88081V11.8993C19.8943 13.4879 21.1866 14.7801 22.7751 14.7801H24.1745L23.4957 19.4281C23.4635 19.6459 23.5724 19.8603 23.7659 19.9649C23.8434 20.0067 23.9279 20.0267 24.0125 20.0267C24.1388 20.0267 24.2643 19.9814 24.3619 19.8926L30.0494 14.7801H38.1028C39.6913 14.7801 40.9836 13.4879 40.9836 11.8993V3.88081C40.9854 2.29227 39.6931 1 38.1045 1ZM39.9397 11.8993C39.9397 12.911 39.1162 13.7345 38.1045 13.7345H29.8508C29.7218 13.7345 29.5972 13.7824 29.5013 13.8686L24.7409 18.148L25.2986 14.3331C25.3094 14.2588 25.304 14.1831 25.2829 14.1111C25.2619 14.0391 25.2256 13.9724 25.1765 13.9156C25.1274 13.8589 25.0667 13.8133 24.9985 13.782C24.9302 13.7508 24.8561 13.7346 24.781 13.7345H22.7768C21.7652 13.7345 20.9417 12.911 20.9417 11.8993V3.88081C20.9417 2.86913 21.7652 2.04566 22.7768 2.04566H38.1054C39.1171 2.04566 39.9406 2.86913 39.9406 3.88081V11.8993H39.9397ZM32.349 31.8846L27.9834 30.9627L25.7579 27.0954C25.712 27.0158 25.646 26.9496 25.5665 26.9035C25.4869 26.8575 25.3966 26.8333 25.3047 26.8333C25.2128 26.8333 25.1225 26.8575 25.043 26.9035C24.9634 26.9496 24.8974 27.0158 24.8516 27.0954L22.6261 30.9627L22.6121 30.9653C20.2507 28.3659 16.9194 26.8811 13.4234 26.8811C6.57339 26.8811 1 32.4545 1 39.3044V39.917C1 41.6171 2.38289 43 4.08297 43H22.7646C24.4647 43 25.8476 41.6171 25.8476 39.917V39.4474L29.3793 41.0254C29.4634 41.0629 29.5558 41.0776 29.6473 41.0679C29.7387 41.0583 29.8261 41.0247 29.9004 40.9705C29.9749 40.9166 30.0337 40.8439 30.0711 40.7599C30.1084 40.6759 30.1229 40.5835 30.1131 40.4921L29.6408 36.0559L32.6305 32.7446C32.6922 32.6764 32.7348 32.5931 32.754 32.5031C32.7731 32.4131 32.7681 32.3197 32.7394 32.2323C32.7102 32.1454 32.6589 32.0676 32.5904 32.0066C32.5219 31.9456 32.4387 31.9036 32.349 31.8846ZM22.7638 41.9552H4.0821C2.95888 41.9552 2.04479 41.0411 2.04479 39.9179V39.3053C2.04479 33.0313 7.14851 27.9276 13.4225 27.9276C16.4166 27.9276 19.2791 29.1179 21.407 31.2206L18.2604 31.8846C18.0774 31.9229 17.9293 32.0562 17.8709 32.2349C17.8426 32.3223 17.8377 32.4157 17.8568 32.5056C17.8759 32.5956 17.9184 32.6789 17.9799 32.7473L20.9696 36.0585L20.4973 40.4948C20.4772 40.6804 20.5583 40.8634 20.7099 40.9732C20.8615 41.083 21.0602 41.1039 21.2301 41.0272L24.7993 39.4325V39.9188C24.8011 41.0411 23.887 41.9552 22.7638 41.9552ZM28.7058 35.5305C28.6566 35.5852 28.6195 35.6496 28.5968 35.7195C28.5742 35.7895 28.5664 35.8634 28.5742 35.9365L28.975 39.7018L25.5174 38.1568C25.4494 38.1263 25.3771 38.1115 25.3039 38.1115C25.2307 38.1115 25.1583 38.1263 25.0904 38.1568L21.6327 39.7018L22.0335 35.9365C22.0492 35.7884 22.0013 35.6411 21.902 35.5305L19.3645 32.7202L23.0696 31.9377C23.2151 31.9072 23.3406 31.8157 23.4147 31.6868L25.3039 28.4043L27.193 31.6868C27.2296 31.7506 27.2793 31.8059 27.3387 31.8492C27.3982 31.8924 27.4661 31.9226 27.5381 31.9377L31.2432 32.7202L28.7058 35.5305ZM23.9436 5.10162C23.9436 4.81319 24.178 4.57879 24.4665 4.57879H30.981C31.2694 4.57879 31.5038 4.81319 31.5038 5.10162C31.5038 5.39005 31.2694 5.62445 30.981 5.62445H24.4665C24.178 5.62445 23.9436 5.39005 23.9436 5.10162ZM36.936 7.89006C36.936 8.17849 36.7016 8.41289 36.4132 8.41289H24.4665C24.178 8.41289 23.9436 8.17849 23.9436 7.89006C23.9436 7.60163 24.178 7.36723 24.4665 7.36723H36.4123C36.7016 7.36723 36.936 7.60163 36.936 7.89006ZM36.936 10.6785C36.936 10.9669 36.7016 11.2013 36.4132 11.2013H24.4665C24.178 11.2013 23.9436 10.9669 23.9436 10.6785C23.9436 10.3901 24.178 10.1557 24.4665 10.1557H36.4123C36.7016 10.1557 36.936 10.3901 36.936 10.6785Z" fill="white" stroke="white" stroke-width="0.5"/>
</svg>
