<svg width="42" height="42" viewBox="0 0 42 42" fill="none" xmlns="http://www.w3.org/2000/svg">
<path d="M28.3828 26.168C27.9298 26.168 27.5625 26.5352 27.5625 26.9883V32.6484C27.5625 34.91 25.7225 36.75 23.4609 36.75H14.6042C14.1513 36.75 13.7842 37.1169 13.7839 37.5697L13.7827 39.2007L11.8248 37.2428C11.761 37.0964 11.6558 36.9717 11.5222 36.8842C11.3885 36.7966 11.2323 36.75 11.0725 36.75H5.74219C3.48058 36.75 1.64062 34.91 1.64062 32.6484V20.0156C1.64062 17.754 3.48058 15.9141 5.74219 15.9141H14.0273C14.4803 15.9141 14.8476 15.5468 14.8476 15.0937C14.8476 14.6407 14.4803 14.2734 14.0273 14.2734H5.74219C2.57594 14.2734 0 16.8494 0 20.0156V32.6484C0 35.8147 2.57594 38.3906 5.74219 38.3906H10.6524L14.0215 41.7597C14.1362 41.8744 14.2823 41.9526 14.4414 41.9842C14.6004 42.0159 14.7653 41.9997 14.9152 41.9376C15.065 41.8756 15.1932 41.7706 15.2834 41.6358C15.3735 41.501 15.4217 41.3424 15.4219 41.1802L15.4238 38.3906H23.4609C26.6272 38.3906 29.2031 35.8147 29.2031 32.6484V26.9883C29.2031 26.5352 28.8358 26.168 28.3828 26.168Z" fill="white"/>
<path d="M30.0772 0H28.001C21.4267 0 16.0781 5.3486 16.0781 11.9229C16.0781 18.4972 21.4267 23.8457 28.001 23.8457H30.0771C31.1032 23.8457 32.1188 23.7154 33.1032 23.4578L36.1701 26.523C36.2849 26.6377 36.431 26.7157 36.5901 26.7474C36.7492 26.779 36.9142 26.7627 37.064 26.7006C37.2139 26.6385 37.342 26.5334 37.4321 26.3985C37.5222 26.2636 37.5703 26.105 37.5703 25.9428V21.1968C38.8688 20.1452 39.9474 18.8169 40.7044 17.3329C41.5642 15.6475 42 13.8273 42 11.9229C42 5.3486 36.6514 0 30.0772 0ZM36.2564 20.1415C36.1549 20.218 36.0726 20.317 36.0159 20.4307C35.9592 20.5444 35.9297 20.6697 35.9297 20.7968V23.9632L33.9223 21.9569C33.8169 21.8516 33.6848 21.777 33.5402 21.7411C33.3956 21.7052 33.2439 21.7093 33.1015 21.753C32.1251 22.0531 31.1076 22.2052 30.0772 22.2052H28.001C22.3313 22.2052 17.7187 17.5926 17.7187 11.9229C17.7187 6.25324 22.3314 1.64062 28.001 1.64062H30.0772C35.7468 1.64062 40.3594 6.25324 40.3594 11.9229C40.3594 15.1821 38.8639 18.1777 36.2564 20.1415Z" fill="white"/>
<path d="M32.7332 8.97593C32.6148 7.25861 31.2304 5.87425 29.513 5.75588C28.5395 5.68902 27.6104 6.01739 26.8993 6.68127C26.1979 7.33596 25.7957 8.26144 25.7957 9.22047C25.7957 9.67353 26.163 10.0408 26.616 10.0408C27.069 10.0408 27.4363 9.67353 27.4363 9.22047C27.4363 8.70703 27.6432 8.23117 28.0187 7.88065C28.394 7.53046 28.8843 7.35713 29.4003 7.39273C30.305 7.45507 31.0341 8.18425 31.0965 9.08881C31.1595 10.0024 30.5601 10.8097 29.6713 11.0086C28.9513 11.1697 28.4484 11.7954 28.4484 12.5302V14.501C28.4484 14.954 28.8158 15.3213 29.2687 15.3213C29.7218 15.3213 30.0891 14.954 30.089 14.501V12.5957C31.7419 12.1964 32.8509 10.6839 32.7332 8.97593ZM29.8487 17.1658C29.6961 17.0133 29.4845 16.9255 29.2687 16.9255C29.053 16.9255 28.8414 17.0133 28.6888 17.1658C28.5355 17.32 28.4492 17.5284 28.4484 17.7458C28.4484 17.9624 28.5363 18.174 28.6888 18.3266C28.8414 18.4792 29.053 18.5661 29.2687 18.5661C29.4845 18.5661 29.6961 18.4792 29.8487 18.3266C30.002 18.1721 30.0883 17.9635 30.0891 17.7458C30.0891 17.5301 30.0012 17.3184 29.8487 17.1658ZM22.5586 25.4297H5.25C4.79702 25.4297 4.42969 25.7969 4.42969 26.25C4.42969 26.703 4.79702 27.0703 5.25 27.0703H22.5586C23.0116 27.0703 23.3789 26.703 23.3789 26.25C23.3789 25.7969 23.0116 25.4297 22.5586 25.4297ZM23.1385 30.2638C22.986 30.1112 22.7743 30.0234 22.5586 30.0234C22.3428 30.0234 22.1312 30.1112 21.9786 30.2638C21.826 30.4163 21.7383 30.628 21.7383 30.8437C21.7383 31.0595 21.826 31.2711 21.9786 31.4237C22.1312 31.5763 22.3428 31.664 22.5586 31.664C22.7743 31.664 22.986 31.5763 23.1385 31.4237C23.2919 31.2696 23.3783 31.0612 23.3789 30.8437C23.3789 30.628 23.291 30.4163 23.1385 30.2638ZM19.3321 30.0234H5.25C4.79702 30.0234 4.42969 30.3907 4.42969 30.8437C4.42969 31.2968 4.79702 31.664 5.25 31.664H19.3321C19.7851 31.664 20.1524 31.2968 20.1524 30.8437C20.1524 30.3907 19.785 30.0234 19.3321 30.0234ZM17.2266 20.8359H5.25C4.79702 20.8359 4.42969 21.2032 4.42969 21.6562C4.42969 22.1093 4.79702 22.4765 5.25 22.4765H17.2266C17.6796 22.4765 18.0469 22.1093 18.0469 21.6562C18.0469 21.2032 17.6795 20.8359 17.2266 20.8359Z" fill="white"/>
</svg>
